#N canvas 0 0 450 300 12;
#X obj 8 686 outlet;
#X obj 13 -203 inlet;
#X floatatom 6 326 5 0 0 0 - - - 0;
#X floatatom 34 538 5 0 0 0 - - - 0;
#X text 47 343 note;
#X text 38 561 velocity;
#X obj 8 604 makenote;
#X obj 8 631 pack f f;
#X msg 8 657 midi_note 1 \$1 \$2;
#X text 132 657 channel note velocity;
#X text 72 603 handles noteoff msgs;
#X text 187 563 note duration in ms;
#X floatatom 114 586 9 0 0 0 - - - 0;
#X obj 83 -252 bng 15 250 50 0 empty empty empty 17 7 0 10 #fcfcfc
#000000 #000000;
#X obj 12 -382 loadbang;
#X obj 83 -280 r testNote;
#X msg 60 -307 50000;
#X msg 31 -329 100;
#N canvas 0 0 450 300 scaleOct 0;
#X floatatom 60 52 5 0 0 0 - - - 0;
#X obj 61 75 sel 1 3 6 8 10 13 15 18 20 22 25 27 30 32 34 37 39 42
44 46 49 51 54 56 58 61 63 66 68 70 73 75 78 80 82 85 87 90 92 94 97
99 102 104 106 109 111 114 116 118 121 123 126;
#X obj 59 13 inlet;
#X obj 205 763 outlet;
#X floatatom 314 271 5 0 0 0 - - - 0;
#X floatatom 199 344 5 0 0 0 - - - 0;
#X obj 200 316 + 1, f 4;
#X obj 222 191 funnel 53;
#X floatatom 200 295 5 0 0 0 - - - 0;
#X obj 224 227 bng 15 250 50 0 empty empty empty 17 7 0 10 #fcfcfc
#000000 #000000;
#X obj 200 273 spigot;
#X msg 255 247 0;
#X msg 224 248 1;
#X obj 255 227 bng 15 250 50 0 empty empty empty 17 7 0 10 #fcfcfc
#000000 #000000;
#X obj 199 378 moses 60;
#X obj 252 409 moses 84;
#X obj 305 448 moses 95;
#X obj 360 489 moses 107;
#X obj 418 532 moses 119;
#X obj 306 487 - 12;
#X obj 360 520 - 24;
#X obj 418 566 - 36;
#X obj 476 568 - 48;
#X obj 82 423 moses 48;
#X obj 134 451 + 12;
#X obj 31 481 moses 36;
#X obj 84 510 + 24;
#X obj 10 554 moses 24;
#X obj 63 596 + 36;
#X obj 10 632 moses 12;
#X obj 67 673 + 48;
#X obj 18 696 + 60;
#X obj 690 165 else;
#X obj 715 206 cyclone;
#X connect 0 0 1 0;
#X connect 0 0 10 0;
#X connect 1 0 7 0;
#X connect 1 1 7 1;
#X connect 1 2 7 2;
#X connect 1 3 7 3;
#X connect 1 4 7 4;
#X connect 1 5 7 5;
#X connect 1 6 7 6;
#X connect 1 7 7 7;
#X connect 1 8 7 8;
#X connect 1 9 7 9;
#X connect 1 10 7 10;
#X connect 1 11 7 11;
#X connect 1 12 7 12;
#X connect 1 13 7 13;
#X connect 1 14 7 14;
#X connect 1 15 7 15;
#X connect 1 16 7 16;
#X connect 1 17 7 17;
#X connect 1 18 7 18;
#X connect 1 19 7 19;
#X connect 1 20 7 20;
#X connect 1 21 7 21;
#X connect 1 22 7 22;
#X connect 1 23 7 23;
#X connect 1 24 7 24;
#X connect 1 25 7 25;
#X connect 1 26 7 26;
#X connect 1 27 7 27;
#X connect 1 28 7 28;
#X connect 1 29 7 29;
#X connect 1 30 7 30;
#X connect 1 31 7 31;
#X connect 1 32 7 32;
#X connect 1 33 7 33;
#X connect 1 34 7 34;
#X connect 1 35 7 35;
#X connect 1 36 7 36;
#X connect 1 37 7 37;
#X connect 1 38 7 38;
#X connect 1 39 7 39;
#X connect 1 40 7 40;
#X connect 1 41 7 41;
#X connect 1 42 7 42;
#X connect 1 43 7 43;
#X connect 1 44 7 44;
#X connect 1 45 7 45;
#X connect 1 46 7 46;
#X connect 1 47 7 47;
#X connect 1 48 7 48;
#X connect 1 49 7 49;
#X connect 1 50 7 50;
#X connect 1 51 7 51;
#X connect 1 52 7 52;
#X connect 1 53 4 0;
#X connect 1 53 13 0;
#X connect 2 0 0 0;
#X connect 4 0 5 0;
#X connect 5 0 14 0;
#X connect 6 0 5 0;
#X connect 7 0 9 0;
#X connect 8 0 6 0;
#X connect 9 0 12 0;
#X connect 10 0 8 0;
#X connect 11 0 10 1;
#X connect 12 0 10 1;
#X connect 13 0 11 0;
#X connect 14 0 23 0;
#X connect 14 1 15 0;
#X connect 15 0 3 0;
#X connect 15 1 16 0;
#X connect 16 0 19 0;
#X connect 16 1 17 0;
#X connect 17 0 20 0;
#X connect 17 1 18 0;
#X connect 18 0 21 0;
#X connect 18 1 22 0;
#X connect 19 0 3 0;
#X connect 20 0 3 0;
#X connect 21 0 3 0;
#X connect 22 0 3 0;
#X connect 23 0 25 0;
#X connect 23 1 24 0;
#X connect 24 0 3 0;
#X connect 25 0 27 0;
#X connect 25 1 26 0;
#X connect 26 0 3 0;
#X connect 27 0 29 0;
#X connect 27 1 28 0;
#X connect 28 0 3 0;
#X connect 29 0 31 0;
#X connect 29 1 30 0;
#X connect 30 0 3 0;
#X connect 31 0 3 0;
#X restore 44 276 pd scaleOct;
#X msg 548 -344 68;
#X text 577 -346 init note for debugging;
#X obj 94 326 t f f;
#X obj 126 356 f;
#X obj 126 386 -;
#X text 152 387 rate of change;
#X obj 34 399 metro 250;
#X obj 34 375 tgl 15 0 empty empty empty 17 7 0 10 #fcfcfc #000000
#000000 0 1;
#X obj 34 424 drunk 32 4;
#X obj 34 449 + 32;
#X obj 34 474 * 2;
#X obj 34 500 clip 0 127;
#X text 105 -306 init duration for debugging;
#X text 61 -332 init velocity for debugging;
#X text 160 -278 for debugging;
#X obj 126 461 + 1;
#X obj 126 487 * -1;
#X obj 126 539 abs;
#X obj 126 513 *;
#X obj 126 419 abs;
#X floatatom 12 102 5 0 0 0 - - - 0;
#X floatatom 13 -151 5 0 0 0 - - - 0;
#X obj 13 -54 pack f f f f f;
#X obj 13 -23 expr ($f1 - $f2) * ($f5 - $f4) / ($f3 - $f2) + $f4;
#X floatatom 66 -115 5 0 0 0 - - - 0;
#X floatatom 113 -115 5 0 0 0 - - - 0;
#X floatatom 160 -115 5 0 0 0 - - - 0;
#X floatatom 210 -115 5 0 0 0 - - - 0;
#X msg 160 -140 0;
#X msg 210 -140 127;
#X text 56 -163 in min;
#X text 106 -164 in max;
#X text 153 -164 out min;
#X text 207 -163 out max;
#X obj 113 47 -;
#X obj 113 76 abs;
#X floatatom 113 103 5 0 0 0 - - - 0;
#X obj 219 29 f;
#X obj 219 53 -;
#X obj 187 2 t f f;
#X obj 219 78 abs;
#X floatatom 219 103 5 0 0 0 - - - 0;
#X obj 335 53 -;
#X obj 335 78 abs;
#X floatatom 335 105 5 0 0 0 - - - 0;
#X text 56 -204 raw data;
#X text 246 -66 scale to midi range;
#X text 98 297 scale to musical range;
#X text 52 105 linear;
#X text 150 104 inverse;
#X text 261 103 delta lin;
#X text 375 104 delta inv;
#X text 115 128 TO DO --- SWITCHING SYSTEM BETWEEN INPUTS;
#X obj 7 401 int;
#X obj 124 -55 s inMax;
#X obj 364 -202 inlet;
#X text 409 -201 switching setup params;
#X floatatom 48 208 5 0 0 0 - - - 0;
#X obj 37 249 switch 4;
#X obj 364 -171 bng 15 250 50 0 empty empty empty 17 7 0 10 #fcfcfc
#000000 #000000;
#X obj 48 180 + 1;
#X obj 48 152 random 4;
#X obj -85 575 spigot 1;
#X obj -32 556 tgl 15 0 empty empty empty 17 7 0 10 #fcfcfc #000000
#000000 0 1;
#X msg -32 493 1;
#X msg -17 525 0;
#X obj -32 466 sel 0;
#X obj -35 435 loadbang;
#X obj 63 -143 r min;
#X obj 178 165 * 127;
#X obj 330 161 * 127;
#X obj 110 -141 r maxVal;
#X obj 202 534 spigot 1;
#X obj 204 504 tgl 15 0 empty empty empty 17 7 0 10 #fcfcfc #000000
#000000 0 1;
#X msg 204 441 1;
#X msg 219 473 0;
#X obj 204 414 sel 0;
#X obj 201 383 loadbang;
#X obj 170 489 * 3;
#X obj 126 184 +;
#X floatatom 128 210 5 0 0 0 - - - 0;
#X obj 128 238 abs;
#X floatatom 160 271 5 0 0 0 - - - 0;
#X obj 204 247 / 3;
#X obj 262 187 +;
#X obj 260 214 abs;
#X obj 259 246 / 3;
#X connect 1 0 40 0;
#X connect 2 0 21 0;
#X connect 2 0 72 0;
#X connect 3 0 6 1;
#X connect 3 0 97 0;
#X connect 6 0 7 0;
#X connect 6 1 7 1;
#X connect 6 1 85 0;
#X connect 6 1 95 0;
#X connect 7 0 8 0;
#X connect 8 0 0 0;
#X connect 12 0 6 2;
#X connect 13 0 2 0;
#X connect 14 0 17 0;
#X connect 14 0 16 0;
#X connect 14 0 26 0;
#X connect 14 0 48 0;
#X connect 14 0 47 0;
#X connect 14 0 78 0;
#X connect 15 0 13 0;
#X connect 16 0 12 0;
#X connect 17 0 3 0;
#X connect 18 0 2 0;
#X connect 21 0 23 1;
#X connect 21 1 22 0;
#X connect 22 0 23 0;
#X connect 23 0 38 0;
#X connect 25 0 27 0;
#X connect 26 0 25 0;
#X connect 27 0 28 0;
#X connect 28 0 29 0;
#X connect 29 0 30 0;
#X connect 30 0 3 0;
#X connect 34 0 35 0;
#X connect 35 0 37 0;
#X connect 36 0 91 0;
#X connect 37 0 36 0;
#X connect 38 0 34 0;
#X connect 39 0 77 1;
#X connect 39 0 98 0;
#X connect 39 0 103 0;
#X connect 40 0 41 0;
#X connect 41 0 42 0;
#X connect 42 0 39 0;
#X connect 42 0 53 0;
#X connect 42 0 58 0;
#X connect 43 0 41 1;
#X connect 44 0 41 2;
#X connect 44 0 73 0;
#X connect 45 0 41 3;
#X connect 46 0 41 4;
#X connect 46 0 53 1;
#X connect 46 0 61 1;
#X connect 47 0 45 0;
#X connect 48 0 46 0;
#X connect 53 0 54 0;
#X connect 54 0 55 0;
#X connect 55 0 77 2;
#X connect 56 0 57 0;
#X connect 57 0 59 0;
#X connect 58 0 57 1;
#X connect 58 1 56 0;
#X connect 59 0 60 0;
#X connect 59 0 61 0;
#X connect 60 0 88 0;
#X connect 61 0 62 0;
#X connect 62 0 63 0;
#X connect 63 0 89 0;
#X connect 72 0 81 0;
#X connect 74 0 78 0;
#X connect 76 0 77 0;
#X connect 77 0 18 0;
#X connect 78 0 80 0;
#X connect 79 0 76 0;
#X connect 80 0 79 0;
#X connect 81 0 6 0;
#X connect 82 0 81 1;
#X connect 83 0 82 0;
#X connect 84 0 82 0;
#X connect 85 0 83 0;
#X connect 85 1 84 0;
#X connect 86 0 83 0;
#X connect 87 0 43 0;
#X connect 88 0 98 1;
#X connect 89 0 103 1;
#X connect 90 0 44 0;
#X connect 91 0 12 0;
#X connect 92 0 91 1;
#X connect 93 0 92 0;
#X connect 94 0 92 0;
#X connect 95 0 93 0;
#X connect 95 1 94 0;
#X connect 96 0 93 0;
#X connect 97 0 37 1;
#X connect 98 0 99 0;
#X connect 99 0 100 0;
#X connect 100 0 102 0;
#X connect 101 0 77 4;
#X connect 102 0 101 0;
#X connect 103 0 104 0;
#X connect 104 0 105 0;
#X connect 105 0 77 3;
