#N canvas 0 0 450 300 12;
#X obj 22 224 sel 0;
#X obj 412 220 sel 1;
#X obj 22 308 expr ($f1 - $f2) * ($f5 - $f4) / ($f3 - $f2) + $f4;
#X obj 22 334 int;
#X obj 128 107 f;
#X floatatom 128 135 5 0 0 0 - - - 0;
#X obj 163 108 + 1;
#X msg 127 80 0;
#X obj 40 163 demux f f f f;
#X obj 8 59 t b f;
#X obj 24 396 f;
#X obj 412 256 f;
#X obj 414 400 f;
#X obj 22 280 pack f 0 1 0 21;
#X obj 412 312 expr ($f1 - $f2) * ($f5 - $f4) / ($f3 - $f2) + $f4;
#X obj 412 338 int;
#X text 6 4 input for value between 1 and 0;
#X obj 8 25 inlet;
#X obj 282 26 inlet;
#X text 250 3 vst selection #;
#X obj 412 285 pack f 0 1 0 13;
#X obj 229 873 outlet;
#X obj 24 452 expr ($f1 - $f2) * ($f5 - $f4) / ($f3 - $f2) + $f4;
#X obj 24 478 int;
#X obj 24 369 sel 2;
#X obj 414 453 expr ($f1 - $f2) * ($f5 - $f4) / ($f3 - $f2) + $f4;
#X obj 414 479 int;
#X obj 414 373 sel 3;
#X obj 22 251 f;
#X obj 25 586 f;
#X obj 415 590 f;
#X obj 25 642 expr ($f1 - $f2) * ($f5 - $f4) / ($f3 - $f2) + $f4;
#X obj 25 668 int;
#X obj 415 643 expr ($f1 - $f2) * ($f5 - $f4) / ($f3 - $f2) + $f4;
#X obj 415 669 int;
#X obj 25 559 sel 4;
#X obj 415 563 sel 5;
#X obj 24 426 pack f 0 1 0 18;
#X text 531 615 NEED TO UPDATE # of presets;
#X obj 414 426 pack f 0 1 0 9;
#X obj 25 615 pack f 0 1 0 7;
#X obj 415 616 pack f 0 1 0 3;
#X connect 0 0 28 0;
#X connect 1 0 11 0;
#X connect 2 0 3 0;
#X connect 3 0 21 0;
#X connect 4 0 5 0;
#X connect 4 0 6 0;
#X connect 5 0 8 1;
#X connect 6 0 4 1;
#X connect 7 0 4 0;
#X connect 8 0 28 1;
#X connect 8 1 10 1;
#X connect 8 2 11 1;
#X connect 8 2 29 1;
#X connect 8 3 12 1;
#X connect 8 3 30 1;
#X connect 9 0 4 0;
#X connect 9 1 8 0;
#X connect 10 0 37 0;
#X connect 11 0 20 0;
#X connect 12 0 39 0;
#X connect 13 0 2 0;
#X connect 14 0 15 0;
#X connect 15 0 21 0;
#X connect 17 0 9 0;
#X connect 18 0 0 0;
#X connect 18 0 1 0;
#X connect 18 0 24 0;
#X connect 18 0 27 0;
#X connect 18 0 35 0;
#X connect 18 0 36 0;
#X connect 20 0 14 0;
#X connect 22 0 23 0;
#X connect 23 0 21 0;
#X connect 24 0 10 0;
#X connect 25 0 26 0;
#X connect 26 0 21 0;
#X connect 27 0 12 0;
#X connect 28 0 13 0;
#X connect 29 0 40 0;
#X connect 30 0 41 0;
#X connect 31 0 32 0;
#X connect 32 0 21 0;
#X connect 33 0 34 0;
#X connect 34 0 21 0;
#X connect 35 0 29 0;
#X connect 36 0 30 0;
#X connect 37 0 22 0;
#X connect 39 0 25 0;
#X connect 40 0 31 0;
#X connect 41 0 33 0;
