#N canvas 0 0 450 300 12;
#X obj 27 -138 inlet;
#X obj 27 730 outlet;
#X obj 91 730 outlet;
#X obj 162 731 outlet;
#X obj 226 729 outlet;
#X obj 291 729 outlet;
#X obj 358 729 outlet;
#X text 23 750 VST0;
#X text 84 749 preset0;
#X text 164 749 VST1;
#X text 221 749 preset1;
#X text 290 748 VST2;
#X text 354 748 preset2;
#X obj 426 728 outlet;
#X obj 493 728 outlet;
#X obj 560 730 outlet;
#X obj 626 730 outlet;
#X obj 690 730 outlet;
#X obj 751 731 outlet;
#X text 422 748 VST3;
#X text 486 747 preset3;
#X text 561 748 VST4;
#X text 623 750 preset4;
#X text 689 749 VST5;
#X text 747 750 preset5;
#X obj 27 -110 /;
#X obj 76 -138 r inMax;
#X text 53 -110 gives a value between 0 and 1;
#X obj 27 -80 moses 0.1;
#X obj 87 -42 moses 0.2;
#X obj 147 -16 moses 0.3;
#X obj 207 10 moses 0.4;
#X obj 267 35 moses 0.5;
#X obj 349 64 moses 0.6;
#X obj 440 87 moses 0.7;
#X obj 561 121 moses 0.8;
#X obj 676 138 moses 0.9;
#X obj 27 -17 moses 0.025;
#X obj 28 46 moses 0.05;
#X obj 29 116 moses 0.075;
#X obj 89 8 moses 0.125;
#X obj 93 72 moses 0.15;
#X obj 89 145 moses 0.175;
#X obj 143 39 moses 0.225;
#X obj 155 121 moses 0.25;
#X obj 155 200 moses 0.275;
#X msg 27 11 0;
#X msg 107 34 1, f 2;
#X msg 28 73 2;
#X msg 198 145 3;
#X obj 27 686 spigot;
#X obj 39 711 bng 15 250 50 0 empty empty empty 17 7 0 10 #fcfcfc #000000
#000000;
#X msg 35 589 0;
#X msg 35 563 1;
#X obj 35 539 loadbang;
#X obj 91 686 spigot;
#X obj 103 711 bng 15 250 50 0 empty empty empty 17 7 0 10 #fcfcfc
#000000 #000000;
#X msg 115 633 0;
#X msg 114 607 1;
#X obj 104 583 loadbang;
#X obj 162 686 spigot;
#X obj 174 711 bng 15 250 50 0 empty empty empty 17 7 0 10 #fcfcfc
#000000 #000000;
#X msg 175 630 0;
#X msg 175 607 1;
#X obj 175 583 loadbang;
#X obj 226 686 spigot;
#X obj 238 711 bng 15 250 50 0 empty empty empty 17 7 0 10 #fcfcfc
#000000 #000000;
#X msg 239 630 0;
#X msg 239 607 1;
#X obj 239 583 loadbang;
#X obj 294 686 spigot;
#X obj 306 711 bng 15 250 50 0 empty empty empty 17 7 0 10 #fcfcfc
#000000 #000000;
#X msg 307 630 0;
#X msg 307 607 1;
#X obj 307 583 loadbang;
#X obj 358 686 spigot;
#X obj 370 711 bng 15 250 50 0 empty empty empty 17 7 0 10 #fcfcfc
#000000 #000000;
#X msg 371 630 0;
#X msg 371 607 1;
#X obj 371 583 loadbang;
#X obj 429 686 spigot;
#X obj 441 711 bng 15 250 50 0 empty empty empty 17 7 0 10 #fcfcfc
#000000 #000000;
#X msg 442 630 0;
#X msg 442 607 1;
#X obj 442 583 loadbang;
#X obj 493 686 spigot;
#X obj 505 711 bng 15 250 50 0 empty empty empty 17 7 0 10 #fcfcfc
#000000 #000000;
#X msg 506 630 0;
#X msg 506 607 1;
#X obj 506 583 loadbang;
#X obj 561 686 spigot;
#X obj 573 711 bng 15 250 50 0 empty empty empty 17 7 0 10 #fcfcfc
#000000 #000000;
#X msg 574 630 0;
#X msg 574 607 1;
#X obj 574 583 loadbang;
#X obj 625 686 spigot;
#X obj 637 711 bng 15 250 50 0 empty empty empty 17 7 0 10 #fcfcfc
#000000 #000000;
#X msg 638 630 0;
#X msg 638 607 1;
#X obj 638 583 loadbang;
#X obj 696 686 spigot;
#X obj 708 711 bng 15 250 50 0 empty empty empty 17 7 0 10 #fcfcfc
#000000 #000000;
#X msg 709 630 0;
#X msg 709 607 1;
#X obj 709 583 loadbang;
#X obj 760 686 spigot;
#X obj 772 711 bng 15 250 50 0 empty empty empty 17 7 0 10 #fcfcfc
#000000 #000000;
#X msg 773 630 0;
#X msg 773 607 1;
#X obj 773 583 loadbang;
#X obj 20 334 unpack f f;
#X msg 229 227 2;
#X msg 177 71 0;
#X msg 241 160 1;
#X msg 265 227 2;
#X text 792 707 one chance in life;
#X text 753 434 abyss presets 21;
#X text 753 462 kontakt presets 18;
#X obj 210 79 moses 0.325;
#X obj 241 130 moses 0.35;
#X obj 243 189 moses 0.375;
#X obj 294 100 moses 0.425;
#X obj 306 157 moses 0.45;
#X obj 360 128 moses 0.525;
#X obj 383 179 moses 0.55;
#X obj 402 247 moses 0.575;
#X obj 452 119 moses 0.625;
#X obj 473 189 moses 0.65;
#X obj 492 249 moses 0.675;
#X obj 564 154 moses 0.725;
#X obj 569 201 moses 0.75;
#X obj 579 255 moses 0.775;
#X obj 672 166 moses 0.825;
#X obj 674 217 moses 0.85;
#X obj 673 274 moses 0.875;
#X obj 765 166 moses 0.925;
#X obj 772 221 moses 0.95;
#X obj 785 285 moses 0.975;
#X obj 27 482 demux f f f f f f;
#X msg 318 126 0;
#X msg 331 181 1;
#X msg 341 231 2, f 2;
#X obj 339 204 moses 0.475;
#X msg 402 281 0;
#X msg 443 279 1;
#X msg 469 146 2;
#X msg 572 176 0;
#X msg 585 227 1;
#X msg 591 280 2;
#X msg 679 306 0;
#X msg 732 306 1;
#X msg 773 192 2;
#X msg 780 250 3;
#X obj 262 493 funnel 40, f 65;
#X obj 84 373 / 40;
#X obj 84 398 * 5;
#X obj 84 423 + 0.499999;
#X obj 84 449 int;
#N canvas 90 33 937 936 presetCalc_0 0;
#X obj 22 224 sel 0;
#X obj 412 220 sel 1;
#X obj 22 308 expr ($f1 - $f2) * ($f5 - $f4) / ($f3 - $f2) + $f4;
#X obj 22 334 int;
#X obj 128 107 f;
#X floatatom 128 135 5 0 0 0 - - - 0;
#X obj 163 108 + 1;
#X msg 127 80 0;
#X obj 40 163 demux f f f f;
#X obj 8 59 t b f;
#X obj 24 396 f;
#X obj 412 256 f;
#X obj 414 400 f;
#X obj 22 280 pack f 0 1 0 21;
#X obj 412 312 expr ($f1 - $f2) * ($f5 - $f4) / ($f3 - $f2) + $f4;
#X obj 412 338 int;
#X text 6 4 input for value between 1 and 0;
#X obj 8 25 inlet;
#X obj 282 26 inlet;
#X text 250 3 vst selection #;
#X obj 412 285 pack f 0 1 0 13;
#X obj 243 799 outlet;
#X obj 24 452 expr ($f1 - $f2) * ($f5 - $f4) / ($f3 - $f2) + $f4;
#X obj 24 478 int;
#X obj 24 369 sel 2;
#X obj 414 453 expr ($f1 - $f2) * ($f5 - $f4) / ($f3 - $f2) + $f4;
#X obj 414 479 int;
#X obj 414 373 sel 3;
#X obj 22 251 f;
#X obj 25 586 f;
#X obj 415 590 f;
#X obj 25 642 expr ($f1 - $f2) * ($f5 - $f4) / ($f3 - $f2) + $f4;
#X obj 25 668 int;
#X obj 415 643 expr ($f1 - $f2) * ($f5 - $f4) / ($f3 - $f2) + $f4;
#X obj 415 669 int;
#X obj 25 559 sel 4;
#X obj 415 563 sel 5;
#X obj 24 426 pack f 0 1 0 18;
#X text 531 615 NEED TO UPDATE # of presets;
#X obj 414 426 pack f 0 1 0 9;
#X obj 25 615 pack f 0 1 0 7;
#X obj 415 616 pack f 0 1 0 3;
#X connect 0 0 28 0;
#X connect 1 0 11 0;
#X connect 2 0 3 0;
#X connect 3 0 21 0;
#X connect 4 0 5 0;
#X connect 4 0 6 0;
#X connect 5 0 8 1;
#X connect 6 0 4 1;
#X connect 7 0 4 0;
#X connect 8 0 28 1;
#X connect 8 1 10 1;
#X connect 8 2 11 1;
#X connect 8 2 29 1;
#X connect 8 3 12 1;
#X connect 8 3 30 1;
#X connect 9 0 4 0;
#X connect 9 1 8 0;
#X connect 10 0 37 0;
#X connect 11 0 20 0;
#X connect 12 0 39 0;
#X connect 13 0 2 0;
#X connect 14 0 15 0;
#X connect 15 0 21 0;
#X connect 17 0 9 0;
#X connect 18 0 0 0;
#X connect 18 0 1 0;
#X connect 18 0 24 0;
#X connect 18 0 27 0;
#X connect 18 0 35 0;
#X connect 18 0 36 0;
#X connect 20 0 14 0;
#X connect 22 0 23 0;
#X connect 23 0 21 0;
#X connect 24 0 10 0;
#X connect 25 0 26 0;
#X connect 26 0 21 0;
#X connect 27 0 12 0;
#X connect 28 0 13 0;
#X connect 29 0 40 0;
#X connect 30 0 41 0;
#X connect 31 0 32 0;
#X connect 32 0 21 0;
#X connect 33 0 34 0;
#X connect 34 0 21 0;
#X connect 35 0 29 0;
#X connect 36 0 30 0;
#X connect 37 0 22 0;
#X connect 39 0 25 0;
#X connect 40 0 31 0;
#X connect 41 0 33 0;
#X restore 88 554 pd presetCalc_0;
#X text 754 448 novum presets 13;
#N canvas 177 31 817 936 presetCalc_1 0;
#X obj 22 224 sel 0;
#X obj 412 220 sel 1;
#X obj 22 308 expr ($f1 - $f2) * ($f5 - $f4) / ($f3 - $f2) + $f4;
#X obj 22 334 int;
#X obj 128 107 f;
#X floatatom 128 135 5 0 0 0 - - - 0;
#X obj 163 108 + 1;
#X msg 127 80 0;
#X obj 40 163 demux f f f f;
#X obj 8 59 t b f;
#X obj 24 396 f;
#X obj 412 256 f;
#X obj 414 400 f;
#X obj 22 280 pack f 0 1 0 21;
#X obj 412 312 expr ($f1 - $f2) * ($f5 - $f4) / ($f3 - $f2) + $f4;
#X obj 412 338 int;
#X text 6 4 input for value between 1 and 0;
#X obj 8 25 inlet;
#X obj 282 26 inlet;
#X text 250 3 vst selection #;
#X obj 412 285 pack f 0 1 0 13;
#X obj 229 873 outlet;
#X obj 24 452 expr ($f1 - $f2) * ($f5 - $f4) / ($f3 - $f2) + $f4;
#X obj 24 478 int;
#X obj 24 369 sel 2;
#X obj 414 453 expr ($f1 - $f2) * ($f5 - $f4) / ($f3 - $f2) + $f4;
#X obj 414 479 int;
#X obj 414 373 sel 3;
#X obj 22 251 f;
#X obj 25 586 f;
#X obj 415 590 f;
#X obj 25 642 expr ($f1 - $f2) * ($f5 - $f4) / ($f3 - $f2) + $f4;
#X obj 25 668 int;
#X obj 415 643 expr ($f1 - $f2) * ($f5 - $f4) / ($f3 - $f2) + $f4;
#X obj 415 669 int;
#X obj 25 559 sel 4;
#X obj 415 563 sel 5;
#X obj 24 426 pack f 0 1 0 18;
#X text 531 615 NEED TO UPDATE # of presets;
#X obj 414 426 pack f 0 1 0 9;
#X obj 25 615 pack f 0 1 0 7;
#X obj 415 616 pack f 0 1 0 3;
#X connect 0 0 28 0;
#X connect 1 0 11 0;
#X connect 2 0 3 0;
#X connect 3 0 21 0;
#X connect 4 0 5 0;
#X connect 4 0 6 0;
#X connect 5 0 8 1;
#X connect 6 0 4 1;
#X connect 7 0 4 0;
#X connect 8 0 28 1;
#X connect 8 1 10 1;
#X connect 8 2 11 1;
#X connect 8 2 29 1;
#X connect 8 3 12 1;
#X connect 8 3 30 1;
#X connect 9 0 4 0;
#X connect 9 1 8 0;
#X connect 10 0 37 0;
#X connect 11 0 20 0;
#X connect 12 0 39 0;
#X connect 13 0 2 0;
#X connect 14 0 15 0;
#X connect 15 0 21 0;
#X connect 17 0 9 0;
#X connect 18 0 0 0;
#X connect 18 0 1 0;
#X connect 18 0 24 0;
#X connect 18 0 27 0;
#X connect 18 0 35 0;
#X connect 18 0 36 0;
#X connect 20 0 14 0;
#X connect 22 0 23 0;
#X connect 23 0 21 0;
#X connect 24 0 10 0;
#X connect 25 0 26 0;
#X connect 26 0 21 0;
#X connect 27 0 12 0;
#X connect 28 0 13 0;
#X connect 29 0 40 0;
#X connect 30 0 41 0;
#X connect 31 0 32 0;
#X connect 32 0 21 0;
#X connect 33 0 34 0;
#X connect 34 0 21 0;
#X connect 35 0 29 0;
#X connect 36 0 30 0;
#X connect 37 0 22 0;
#X connect 39 0 25 0;
#X connect 40 0 31 0;
#X connect 41 0 33 0;
#X restore 223 554 pd presetCalc_1;
#N canvas 144 19 817 936 presetCalc_2 0;
#X obj 22 224 sel 0;
#X obj 412 220 sel 1;
#X obj 22 308 expr ($f1 - $f2) * ($f5 - $f4) / ($f3 - $f2) + $f4;
#X obj 22 334 int;
#X obj 128 107 f;
#X floatatom 128 135 5 0 0 0 - - - 0;
#X obj 163 108 + 1;
#X msg 127 80 0;
#X obj 40 163 demux f f f f;
#X obj 8 59 t b f;
#X obj 24 396 f;
#X obj 412 256 f;
#X obj 414 400 f;
#X obj 22 280 pack f 0 1 0 21;
#X obj 412 312 expr ($f1 - $f2) * ($f5 - $f4) / ($f3 - $f2) + $f4;
#X obj 412 338 int;
#X text 6 4 input for value between 1 and 0;
#X obj 8 25 inlet;
#X obj 282 26 inlet;
#X text 250 3 vst selection #;
#X obj 412 285 pack f 0 1 0 13;
#X obj 229 873 outlet;
#X obj 24 452 expr ($f1 - $f2) * ($f5 - $f4) / ($f3 - $f2) + $f4;
#X obj 24 478 int;
#X obj 24 369 sel 2;
#X obj 414 453 expr ($f1 - $f2) * ($f5 - $f4) / ($f3 - $f2) + $f4;
#X obj 414 479 int;
#X obj 414 373 sel 3;
#X obj 22 251 f;
#X obj 25 586 f;
#X obj 415 590 f;
#X obj 25 642 expr ($f1 - $f2) * ($f5 - $f4) / ($f3 - $f2) + $f4;
#X obj 25 668 int;
#X obj 415 643 expr ($f1 - $f2) * ($f5 - $f4) / ($f3 - $f2) + $f4;
#X obj 415 669 int;
#X obj 25 559 sel 4;
#X obj 415 563 sel 5;
#X obj 24 426 pack f 0 1 0 18;
#X text 531 615 NEED TO UPDATE # of presets;
#X obj 414 426 pack f 0 1 0 9;
#X obj 25 615 pack f 0 1 0 7;
#X obj 415 616 pack f 0 1 0 3;
#X connect 0 0 28 0;
#X connect 1 0 11 0;
#X connect 2 0 3 0;
#X connect 3 0 21 0;
#X connect 4 0 5 0;
#X connect 4 0 6 0;
#X connect 5 0 8 1;
#X connect 6 0 4 1;
#X connect 7 0 4 0;
#X connect 8 0 28 1;
#X connect 8 1 10 1;
#X connect 8 2 11 1;
#X connect 8 2 29 1;
#X connect 8 3 12 1;
#X connect 8 3 30 1;
#X connect 9 0 4 0;
#X connect 9 1 8 0;
#X connect 10 0 37 0;
#X connect 11 0 20 0;
#X connect 12 0 39 0;
#X connect 13 0 2 0;
#X connect 14 0 15 0;
#X connect 15 0 21 0;
#X connect 17 0 9 0;
#X connect 18 0 0 0;
#X connect 18 0 1 0;
#X connect 18 0 24 0;
#X connect 18 0 27 0;
#X connect 18 0 35 0;
#X connect 18 0 36 0;
#X connect 20 0 14 0;
#X connect 22 0 23 0;
#X connect 23 0 21 0;
#X connect 24 0 10 0;
#X connect 25 0 26 0;
#X connect 26 0 21 0;
#X connect 27 0 12 0;
#X connect 28 0 13 0;
#X connect 29 0 40 0;
#X connect 30 0 41 0;
#X connect 31 0 32 0;
#X connect 32 0 21 0;
#X connect 33 0 34 0;
#X connect 34 0 21 0;
#X connect 35 0 29 0;
#X connect 36 0 30 0;
#X connect 37 0 22 0;
#X connect 39 0 25 0;
#X connect 40 0 31 0;
#X connect 41 0 33 0;
#X restore 355 555 pd presetCalc_2;
#N canvas 242 67 817 936 presetCalc_3 0;
#X obj 22 224 sel 0;
#X obj 412 220 sel 1;
#X obj 22 308 expr ($f1 - $f2) * ($f5 - $f4) / ($f3 - $f2) + $f4;
#X obj 22 334 int;
#X obj 128 107 f;
#X floatatom 128 135 5 0 0 0 - - - 0;
#X obj 163 108 + 1;
#X msg 127 80 0;
#X obj 40 163 demux f f f f;
#X obj 8 59 t b f;
#X obj 24 396 f;
#X obj 412 256 f;
#X obj 414 400 f;
#X obj 22 280 pack f 0 1 0 21;
#X obj 412 312 expr ($f1 - $f2) * ($f5 - $f4) / ($f3 - $f2) + $f4;
#X obj 412 338 int;
#X text 6 4 input for value between 1 and 0;
#X obj 8 25 inlet;
#X obj 282 26 inlet;
#X text 250 3 vst selection #;
#X obj 412 285 pack f 0 1 0 13;
#X obj 229 873 outlet;
#X obj 24 452 expr ($f1 - $f2) * ($f5 - $f4) / ($f3 - $f2) + $f4;
#X obj 24 478 int;
#X obj 24 369 sel 2;
#X obj 414 453 expr ($f1 - $f2) * ($f5 - $f4) / ($f3 - $f2) + $f4;
#X obj 414 479 int;
#X obj 414 373 sel 3;
#X obj 22 251 f;
#X obj 25 586 f;
#X obj 415 590 f;
#X obj 25 642 expr ($f1 - $f2) * ($f5 - $f4) / ($f3 - $f2) + $f4;
#X obj 25 668 int;
#X obj 415 643 expr ($f1 - $f2) * ($f5 - $f4) / ($f3 - $f2) + $f4;
#X obj 415 669 int;
#X obj 25 559 sel 4;
#X obj 415 563 sel 5;
#X obj 24 426 pack f 0 1 0 18;
#X text 531 615 NEED TO UPDATE # of presets;
#X obj 414 426 pack f 0 1 0 9;
#X obj 25 615 pack f 0 1 0 7;
#X obj 415 616 pack f 0 1 0 3;
#X connect 0 0 28 0;
#X connect 1 0 11 0;
#X connect 2 0 3 0;
#X connect 3 0 21 0;
#X connect 4 0 5 0;
#X connect 4 0 6 0;
#X connect 5 0 8 1;
#X connect 6 0 4 1;
#X connect 7 0 4 0;
#X connect 8 0 28 1;
#X connect 8 1 10 1;
#X connect 8 2 11 1;
#X connect 8 2 29 1;
#X connect 8 3 12 1;
#X connect 8 3 30 1;
#X connect 9 0 4 0;
#X connect 9 1 8 0;
#X connect 10 0 37 0;
#X connect 11 0 20 0;
#X connect 12 0 39 0;
#X connect 13 0 2 0;
#X connect 14 0 15 0;
#X connect 15 0 21 0;
#X connect 17 0 9 0;
#X connect 18 0 0 0;
#X connect 18 0 1 0;
#X connect 18 0 24 0;
#X connect 18 0 27 0;
#X connect 18 0 35 0;
#X connect 18 0 36 0;
#X connect 20 0 14 0;
#X connect 22 0 23 0;
#X connect 23 0 21 0;
#X connect 24 0 10 0;
#X connect 25 0 26 0;
#X connect 26 0 21 0;
#X connect 27 0 12 0;
#X connect 28 0 13 0;
#X connect 29 0 40 0;
#X connect 30 0 41 0;
#X connect 31 0 32 0;
#X connect 32 0 21 0;
#X connect 33 0 34 0;
#X connect 34 0 21 0;
#X connect 35 0 29 0;
#X connect 36 0 30 0;
#X connect 37 0 22 0;
#X connect 39 0 25 0;
#X connect 40 0 31 0;
#X connect 41 0 33 0;
#X restore 490 555 pd presetCalc_3;
#N canvas 376 38 817 936 presetCalc_4 0;
#X obj 22 224 sel 0;
#X obj 412 220 sel 1;
#X obj 22 308 expr ($f1 - $f2) * ($f5 - $f4) / ($f3 - $f2) + $f4;
#X obj 22 334 int;
#X obj 128 107 f;
#X floatatom 128 135 5 0 0 0 - - - 0;
#X obj 163 108 + 1;
#X msg 127 80 0;
#X obj 40 163 demux f f f f;
#X obj 8 59 t b f;
#X obj 24 396 f;
#X obj 412 256 f;
#X obj 414 400 f;
#X obj 22 280 pack f 0 1 0 21;
#X obj 412 312 expr ($f1 - $f2) * ($f5 - $f4) / ($f3 - $f2) + $f4;
#X obj 412 338 int;
#X text 6 4 input for value between 1 and 0;
#X obj 8 25 inlet;
#X obj 282 26 inlet;
#X text 250 3 vst selection #;
#X obj 412 285 pack f 0 1 0 13;
#X obj 229 873 outlet;
#X obj 24 452 expr ($f1 - $f2) * ($f5 - $f4) / ($f3 - $f2) + $f4;
#X obj 24 478 int;
#X obj 24 369 sel 2;
#X obj 414 453 expr ($f1 - $f2) * ($f5 - $f4) / ($f3 - $f2) + $f4;
#X obj 414 479 int;
#X obj 414 373 sel 3;
#X obj 22 251 f;
#X obj 25 586 f;
#X obj 415 590 f;
#X obj 25 642 expr ($f1 - $f2) * ($f5 - $f4) / ($f3 - $f2) + $f4;
#X obj 25 668 int;
#X obj 415 643 expr ($f1 - $f2) * ($f5 - $f4) / ($f3 - $f2) + $f4;
#X obj 415 669 int;
#X obj 25 559 sel 4;
#X obj 415 563 sel 5;
#X obj 24 426 pack f 0 1 0 18;
#X text 531 615 NEED TO UPDATE # of presets;
#X obj 414 426 pack f 0 1 0 9;
#X obj 25 616 pack f 0 1 0 7;
#X obj 415 616 pack f 0 1 0 3;
#X connect 0 0 28 0;
#X connect 1 0 11 0;
#X connect 2 0 3 0;
#X connect 3 0 21 0;
#X connect 4 0 5 0;
#X connect 4 0 6 0;
#X connect 5 0 8 1;
#X connect 6 0 4 1;
#X connect 7 0 4 0;
#X connect 8 0 28 1;
#X connect 8 1 10 1;
#X connect 8 2 11 1;
#X connect 8 2 29 1;
#X connect 8 3 12 1;
#X connect 8 3 30 1;
#X connect 9 0 4 0;
#X connect 9 1 8 0;
#X connect 10 0 37 0;
#X connect 11 0 20 0;
#X connect 12 0 39 0;
#X connect 13 0 2 0;
#X connect 14 0 15 0;
#X connect 15 0 21 0;
#X connect 17 0 9 0;
#X connect 18 0 0 0;
#X connect 18 0 1 0;
#X connect 18 0 24 0;
#X connect 18 0 27 0;
#X connect 18 0 35 0;
#X connect 18 0 36 0;
#X connect 20 0 14 0;
#X connect 22 0 23 0;
#X connect 23 0 21 0;
#X connect 24 0 10 0;
#X connect 25 0 26 0;
#X connect 26 0 21 0;
#X connect 27 0 12 0;
#X connect 28 0 13 0;
#X connect 29 0 40 0;
#X connect 30 0 41 0;
#X connect 31 0 32 0;
#X connect 32 0 21 0;
#X connect 33 0 34 0;
#X connect 34 0 21 0;
#X connect 35 0 29 0;
#X connect 36 0 30 0;
#X connect 37 0 22 0;
#X connect 39 0 25 0;
#X connect 40 0 31 0;
#X connect 41 0 33 0;
#X restore 622 551 pd presetCalc_4;
#N canvas 999 50 817 936 presetCalc_5 0;
#X obj 22 224 sel 0;
#X obj 412 220 sel 1;
#X obj 22 308 expr ($f1 - $f2) * ($f5 - $f4) / ($f3 - $f2) + $f4;
#X obj 22 334 int;
#X obj 128 107 f;
#X floatatom 128 135 5 0 0 0 - - - 0;
#X obj 163 108 + 1;
#X msg 127 80 0;
#X obj 40 163 demux f f f f;
#X obj 8 59 t b f;
#X obj 24 396 f;
#X obj 412 256 f;
#X obj 414 400 f;
#X obj 22 280 pack f 0 1 0 21;
#X obj 412 312 expr ($f1 - $f2) * ($f5 - $f4) / ($f3 - $f2) + $f4;
#X obj 412 338 int;
#X text 6 4 input for value between 1 and 0;
#X obj 8 25 inlet;
#X obj 282 26 inlet;
#X text 250 3 vst selection #;
#X obj 412 285 pack f 0 1 0 13;
#X obj 229 873 outlet;
#X obj 24 452 expr ($f1 - $f2) * ($f5 - $f4) / ($f3 - $f2) + $f4;
#X obj 24 478 int;
#X obj 24 369 sel 2;
#X obj 414 453 expr ($f1 - $f2) * ($f5 - $f4) / ($f3 - $f2) + $f4;
#X obj 414 479 int;
#X obj 414 373 sel 3;
#X obj 22 251 f;
#X obj 25 586 f;
#X obj 415 590 f;
#X obj 25 642 expr ($f1 - $f2) * ($f5 - $f4) / ($f3 - $f2) + $f4;
#X obj 25 668 int;
#X obj 415 643 expr ($f1 - $f2) * ($f5 - $f4) / ($f3 - $f2) + $f4;
#X obj 415 669 int;
#X obj 25 559 sel 4;
#X obj 415 563 sel 5;
#X obj 24 426 pack f 0 1 0 18;
#X text 531 615 NEED TO UPDATE # of presets;
#X obj 414 426 pack f 0 1 0 9;
#X obj 25 615 pack f 0 1 0 7;
#X obj 415 616 pack f 0 1 0 3;
#X connect 0 0 28 0;
#X connect 1 0 11 0;
#X connect 2 0 3 0;
#X connect 3 0 21 0;
#X connect 4 0 5 0;
#X connect 4 0 6 0;
#X connect 5 0 8 1;
#X connect 6 0 4 1;
#X connect 7 0 4 0;
#X connect 8 0 28 1;
#X connect 8 1 10 1;
#X connect 8 2 11 1;
#X connect 8 2 29 1;
#X connect 8 3 12 1;
#X connect 8 3 30 1;
#X connect 9 0 4 0;
#X connect 9 1 8 0;
#X connect 10 0 37 0;
#X connect 11 0 20 0;
#X connect 12 0 39 0;
#X connect 13 0 2 0;
#X connect 14 0 15 0;
#X connect 15 0 21 0;
#X connect 17 0 9 0;
#X connect 18 0 0 0;
#X connect 18 0 1 0;
#X connect 18 0 24 0;
#X connect 18 0 27 0;
#X connect 18 0 35 0;
#X connect 18 0 36 0;
#X connect 20 0 14 0;
#X connect 22 0 23 0;
#X connect 23 0 21 0;
#X connect 24 0 10 0;
#X connect 25 0 26 0;
#X connect 26 0 21 0;
#X connect 27 0 12 0;
#X connect 28 0 13 0;
#X connect 29 0 40 0;
#X connect 30 0 41 0;
#X connect 31 0 32 0;
#X connect 32 0 21 0;
#X connect 33 0 34 0;
#X connect 34 0 21 0;
#X connect 35 0 29 0;
#X connect 36 0 30 0;
#X connect 37 0 22 0;
#X connect 39 0 25 0;
#X connect 40 0 31 0;
#X connect 41 0 33 0;
#X restore 757 554 pd presetCalc_5;
#X text 759 489 canvas presets 7;
#X text 760 586 comment;
#X text 759 475 granite presets 9;
#X text 758 502 paulxstretch 3 for the time being;
#X floatatom 124 344 5 0 0 0 - - - 0;
#X floatatom 43 624 5 0 0 0 - - - 0;
#X floatatom 118 659 5 0 0 0 - - - 0;
#X floatatom 184 656 5 0 0 0 - - - 0;
#X floatatom 247 655 5 0 0 0 - - - 0;
#X floatatom 317 657 5 0 0 0 - - - 0;
#X floatatom 385 658 5 0 0 0 - - - 0;
#X floatatom 457 658 5 0 0 0 - - - 0;
#X floatatom 520 658 5 0 0 0 - - - 0;
#X floatatom 581 657 5 0 0 0 - - - 0;
#X floatatom 650 661 5 0 0 0 - - - 0;
#X floatatom 718 656 5 0 0 0 - - - 0;
#X floatatom 803 660 5 0 0 0 - - - 0;
#X msg 29 183 1;
#X msg 89 174 2;
#X msg 153 229 0;
#X msg 490 282 1;
#X msg 542 279 0;
#X msg 432 217 2;
#X msg 677 245 0;
#X msg 781 316 1;
#X msg 857 317 2;
#X msg 393 153 1;
#X msg 126 96 0;
#X msg 163 174 1;
#X msg 244 103 2;
#X msg 304 227 0, f 2;
#X msg 375 233 1;
#X msg 488 218 2;
#X msg 633 279 0;
#X msg 679 190 2;
#X connect 0 0 25 0;
#X connect 25 0 28 0;
#X connect 25 0 158 0;
#X connect 25 0 160 0;
#X connect 25 0 161 0;
#X connect 25 0 162 0;
#X connect 25 0 163 0;
#X connect 25 0 164 0;
#X connect 26 0 25 1;
#X connect 28 0 37 0;
#X connect 28 1 29 0;
#X connect 29 0 40 0;
#X connect 29 1 30 0;
#X connect 30 0 43 0;
#X connect 30 1 31 0;
#X connect 31 0 118 0;
#X connect 31 1 32 0;
#X connect 32 0 121 0;
#X connect 32 1 33 0;
#X connect 33 0 123 0;
#X connect 33 1 34 0;
#X connect 34 0 126 0;
#X connect 34 1 35 0;
#X connect 35 0 129 0;
#X connect 35 1 36 0;
#X connect 36 0 132 0;
#X connect 36 1 135 0;
#X connect 37 0 46 0;
#X connect 37 1 38 0;
#X connect 38 0 48 0;
#X connect 38 1 39 0;
#X connect 39 0 182 0;
#X connect 40 0 47 0;
#X connect 40 1 41 0;
#X connect 41 0 192 0;
#X connect 41 1 42 0;
#X connect 42 0 183 0;
#X connect 42 1 193 0;
#X connect 43 0 112 0;
#X connect 43 1 44 0;
#X connect 44 0 49 0;
#X connect 44 1 45 0;
#X connect 45 0 184 0;
#X connect 45 1 111 0;
#X connect 46 0 153 6;
#X connect 47 0 153 2;
#X connect 48 0 153 39;
#X connect 49 0 153 16;
#X connect 50 0 1 0;
#X connect 50 0 51 0;
#X connect 50 0 158 1;
#X connect 51 0 52 0;
#X connect 52 0 170 0;
#X connect 53 0 170 0;
#X connect 54 0 53 0;
#X connect 55 0 56 0;
#X connect 55 0 2 0;
#X connect 56 0 57 0;
#X connect 57 0 171 0;
#X connect 58 0 171 0;
#X connect 59 0 58 0;
#X connect 60 0 61 0;
#X connect 60 0 3 0;
#X connect 60 0 160 1;
#X connect 61 0 62 0;
#X connect 62 0 172 0;
#X connect 63 0 172 0;
#X connect 64 0 63 0;
#X connect 65 0 66 0;
#X connect 65 0 4 0;
#X connect 66 0 67 0;
#X connect 67 0 173 0;
#X connect 68 0 173 0;
#X connect 69 0 68 0;
#X connect 70 0 71 0;
#X connect 70 0 5 0;
#X connect 70 0 161 1;
#X connect 71 0 72 0;
#X connect 72 0 174 0;
#X connect 73 0 174 0;
#X connect 74 0 73 0;
#X connect 75 0 76 0;
#X connect 75 0 6 0;
#X connect 76 0 77 0;
#X connect 77 0 175 0;
#X connect 78 0 175 0;
#X connect 79 0 78 0;
#X connect 80 0 81 0;
#X connect 80 0 13 0;
#X connect 80 0 162 1;
#X connect 81 0 82 0;
#X connect 82 0 176 0;
#X connect 83 0 176 0;
#X connect 84 0 83 0;
#X connect 85 0 86 0;
#X connect 85 0 14 0;
#X connect 86 0 87 0;
#X connect 87 0 177 0;
#X connect 88 0 177 0;
#X connect 89 0 88 0;
#X connect 90 0 91 0;
#X connect 90 0 15 0;
#X connect 90 0 163 1;
#X connect 91 0 92 0;
#X connect 92 0 178 0;
#X connect 93 0 178 0;
#X connect 94 0 93 0;
#X connect 95 0 96 0;
#X connect 95 0 16 0;
#X connect 96 0 97 0;
#X connect 97 0 179 0;
#X connect 98 0 179 0;
#X connect 99 0 98 0;
#X connect 100 0 101 0;
#X connect 100 0 17 0;
#X connect 100 0 164 1;
#X connect 101 0 102 0;
#X connect 102 0 180 0;
#X connect 103 0 180 0;
#X connect 104 0 103 0;
#X connect 105 0 106 0;
#X connect 105 0 18 0;
#X connect 106 0 107 0;
#X connect 107 0 181 0;
#X connect 108 0 181 0;
#X connect 109 0 108 0;
#X connect 110 0 154 0;
#X connect 110 1 138 0;
#X connect 111 0 153 1;
#X connect 112 0 153 4;
#X connect 113 0 153 11;
#X connect 114 0 153 9;
#X connect 118 0 194 0;
#X connect 118 1 119 0;
#X connect 119 0 113 0;
#X connect 119 1 120 0;
#X connect 120 0 114 0;
#X connect 120 1 195 0;
#X connect 121 0 139 0;
#X connect 121 1 122 0;
#X connect 122 0 140 0;
#X connect 122 1 142 0;
#X connect 123 0 191 0;
#X connect 123 1 124 0;
#X connect 124 0 187 0;
#X connect 124 1 125 0;
#X connect 125 0 143 0;
#X connect 125 1 144 0;
#X connect 126 0 145 0;
#X connect 126 1 127 0;
#X connect 127 0 197 0;
#X connect 127 1 128 0;
#X connect 128 0 185 0;
#X connect 128 1 186 0;
#X connect 129 0 146 0;
#X connect 129 1 130 0;
#X connect 130 0 147 0;
#X connect 130 1 131 0;
#X connect 131 0 148 0;
#X connect 131 1 198 0;
#X connect 132 0 199 0;
#X connect 132 1 133 0;
#X connect 133 0 188 0;
#X connect 133 1 134 0;
#X connect 134 0 149 0;
#X connect 134 1 150 0;
#X connect 135 0 151 0;
#X connect 135 1 136 0;
#X connect 136 0 152 0;
#X connect 136 1 137 0;
#X connect 137 0 189 0;
#X connect 137 1 190 0;
#X connect 138 0 50 0;
#X connect 138 1 80 0;
#X connect 138 2 60 0;
#X connect 138 3 90 0;
#X connect 138 4 70 0;
#X connect 138 5 100 0;
#X connect 139 0 153 34;
#X connect 140 0 153 25;
#X connect 141 0 153 19;
#X connect 142 0 141 0;
#X connect 142 1 196 0;
#X connect 143 0 153 27;
#X connect 144 0 153 33;
#X connect 145 0 153 17;
#X connect 146 0 153 3;
#X connect 147 0 153 32;
#X connect 148 0 153 23;
#X connect 149 0 153 20;
#X connect 150 0 153 18;
#X connect 151 0 153 28;
#X connect 152 0 153 15;
#X connect 153 0 110 0;
#X connect 154 0 155 0;
#X connect 155 0 156 0;
#X connect 156 0 157 0;
#X connect 157 0 138 1;
#X connect 158 0 55 0;
#X connect 160 0 65 0;
#X connect 161 0 75 0;
#X connect 162 0 85 0;
#X connect 163 0 95 0;
#X connect 164 0 105 0;
#X connect 169 0 25 0;
#X connect 170 0 50 1;
#X connect 171 0 55 1;
#X connect 172 0 60 1;
#X connect 173 0 65 1;
#X connect 174 0 70 1;
#X connect 175 0 75 1;
#X connect 176 0 80 1;
#X connect 177 0 85 1;
#X connect 178 0 90 1;
#X connect 179 0 95 1;
#X connect 180 0 100 1;
#X connect 181 0 105 1;
#X connect 182 0 153 38;
#X connect 183 0 153 8;
#X connect 184 0 153 5;
#X connect 185 0 153 24;
#X connect 186 0 153 35;
#X connect 187 0 153 14;
#X connect 188 0 153 26;
#X connect 189 0 153 36;
#X connect 190 0 153 37;
#X connect 191 0 153 31;
#X connect 192 0 153 0;
#X connect 193 0 153 22;
#X connect 194 0 153 7;
#X connect 195 0 153 10;
#X connect 196 0 153 29;
#X connect 197 0 153 30;
#X connect 198 0 153 21;
#X connect 199 0 153 13;
